solid channel_AB_2-inlet
facet normal -1 0 0
outer loop
vertex 0 0.006248712062835693 -0.00905282211303711
vertex 0 0.008793869972229005 -0.006608164787292481
vertex 0 0.007619967937469482 -0.007933227062225342
endloop
endfacet
facet normal -1 0 0
outer loop
vertex 0 0.010433900833129882 -0.0034833478927612307
vertex 0 0.009740015983581544 -0.005111954689025879
vertex 0 0.008793869972229005 -0.006608164787292481
endloop
endfacet
facet normal -1 0 0
outer loop
vertex 0 0.003060392141342163 -0.010565699577331543
vertex 0 0.006248712062835693 -0.00905282211303711
vertex 0 0.004715618133544922 -0.009937954902648927
endloop
endfacet
facet normal -1 0 0
outer loop
vertex 0 -0.0004429253339767456 -0.010991079330444336
vertex 0 0.003060392141342163 -0.010565699577331543
vertex 0 0.0013259035348892213 -0.010919797897338867
endloop
endfacet
facet normal -1 0 0
outer loop
vertex 0 -0.0004429253339767456 -0.010991079330444336
vertex 0 0.008793869972229005 -0.006608164787292481
vertex 0 0.006248712062835693 -0.00905282211303711
endloop
endfacet
facet normal -1 0 0
outer loop
vertex 0 -0.0004429253339767456 -0.010991079330444336
vertex 0 0.006248712062835693 -0.00905282211303711
vertex 0 0.003060392141342163 -0.010565699577331543
endloop
endfacet
facet normal -1 0 0
outer loop
vertex 0 0.009740015983581544 0.005111954689025879
vertex 0 0.010857552528381349 0.0017645241022109985
vertex 0 0.011 0
endloop
endfacet
facet normal -1 0 0
outer loop
vertex 0 0.009740015983581544 0.005111954689025879
vertex 0 0.010433900833129882 0.0034833478927612307
vertex 0 0.010857552528381349 0.0017645241022109985
endloop
endfacet
facet normal -1 0 0
outer loop
vertex 0 -0.006956899166107178 -0.008520654678344727
vertex 0 -0.003900653839111328 -0.010285179138183593
vertex 0 -0.0055 -0.00952627944946289
endloop
endfacet
facet normal -1 0 0
outer loop
vertex 0 -0.006956899166107178 -0.008520654678344727
vertex 0 -0.0022002825736999513 -0.010777697563171387
vertex 0 -0.003900653839111328 -0.010285179138183593
endloop
endfacet
facet normal -1 0 0
outer loop
vertex 0 -0.010119773864746094 -0.004311632633209228
vertex 0 -0.008233617782592774 -0.007294349193572998
vertex 0 -0.009297090530395508 -0.005879124164581299
endloop
endfacet
facet normal -1 0 0
outer loop
vertex 0 0.003060392141342163 0.010565699577331543
vertex 0 0.008793869972229005 0.006608164787292481
vertex 0 0.009740015983581544 0.005111954689025879
endloop
endfacet
facet normal -1 0 0
outer loop
vertex 0 0.003060392141342163 0.010565699577331543
vertex 0 0.007619967937469482 0.007933227062225342
vertex 0 0.008793869972229005 0.006608164787292481
endloop
endfacet
facet normal -1 0 0
outer loop
vertex 0 0.003060392141342163 0.010565699577331543
vertex 0 0.006248712062835693 0.00905282211303711
vertex 0 0.007619967937469482 0.007933227062225342
endloop
endfacet
facet normal -1 0 0
outer loop
vertex 0 0.003060392141342163 0.010565699577331543
vertex 0 0.004715618133544922 0.009937954902648927
vertex 0 0.006248712062835693 0.00905282211303711
endloop
endfacet
facet normal -1 0 0
outer loop
vertex 0 0.003060392141342163 0.010565699577331543
vertex 0 0.010857552528381349 -0.0017645241022109985
vertex 0 0.010433900833129882 -0.0034833478927612307
endloop
endfacet
facet normal -1 0 0
outer loop
vertex 0 0.003060392141342163 0.010565699577331543
vertex 0 0.011 0
vertex 0 0.010857552528381349 -0.0017645241022109985
endloop
endfacet
facet normal -1 0 0
outer loop
vertex 0 0.003060392141342163 0.010565699577331543
vertex 0 0.010433900833129882 -0.0034833478927612307
vertex 0 0.008793869972229005 -0.006608164787292481
endloop
endfacet
facet normal -1 0 0
outer loop
vertex 0 0.003060392141342163 0.010565699577331543
vertex 0 0.009740015983581544 0.005111954689025879
vertex 0 0.011 0
endloop
endfacet
facet normal -1 0 0
outer loop
vertex 0 -0.010964330673217774 -0.0008851322531700134
vertex 0 -0.010119773864746094 -0.004311632633209228
vertex 0 -0.010680359840393066 -0.0026324722766876223
endloop
endfacet
facet normal -1 0 0
outer loop
vertex 0 -0.010964330673217774 0.0008851322531700134
vertex 0 -0.008233617782592774 -0.007294349193572998
vertex 0 -0.010119773864746094 -0.004311632633209228
endloop
endfacet
facet normal -1 0 0
outer loop
vertex 0 -0.010964330673217774 0.0008851322531700134
vertex 0 -0.010119773864746094 -0.004311632633209228
vertex 0 -0.010964330673217774 -0.0008851322531700134
endloop
endfacet
facet normal -1 0 0
outer loop
vertex 0 -0.0022002825736999513 0.010777697563171387
vertex 0 0.0013259035348892213 0.010919797897338867
vertex 0 0.003060392141342163 0.010565699577331543
endloop
endfacet
facet normal -1 0 0
outer loop
vertex 0 -0.0022002825736999513 0.010777697563171387
vertex 0 -0.0004429253339767456 0.010991079330444336
vertex 0 0.0013259035348892213 0.010919797897338867
endloop
endfacet
facet normal -1 0 0
outer loop
vertex 0 -0.0022002825736999513 0.010777697563171387
vertex 0 -0.006956899166107178 -0.008520654678344727
vertex 0 -0.008233617782592774 -0.007294349193572998
endloop
endfacet
facet normal -1 0 0
outer loop
vertex 0 -0.0022002825736999513 0.010777697563171387
vertex 0 -0.0004429253339767456 -0.010991079330444336
vertex 0 -0.0022002825736999513 -0.010777697563171387
endloop
endfacet
facet normal -1 0 0
outer loop
vertex 0 -0.0022002825736999513 0.010777697563171387
vertex 0 0.008793869972229005 -0.006608164787292481
vertex 0 -0.0004429253339767456 -0.010991079330444336
endloop
endfacet
facet normal -1 0 0
outer loop
vertex 0 -0.0022002825736999513 0.010777697563171387
vertex 0 -0.0022002825736999513 -0.010777697563171387
vertex 0 -0.006956899166107178 -0.008520654678344727
endloop
endfacet
facet normal -1 0 0
outer loop
vertex 0 -0.0022002825736999513 0.010777697563171387
vertex 0 0.003060392141342163 0.010565699577331543
vertex 0 0.008793869972229005 -0.006608164787292481
endloop
endfacet
facet normal -1 0 0
outer loop
vertex 0 -0.010119773864746094 0.004311632633209228
vertex 0 -0.010964330673217774 0.0008851322531700134
vertex 0 -0.010680359840393066 0.0026324722766876223
endloop
endfacet
facet normal -1 0 0
outer loop
vertex 0 -0.0055 0.00952627944946289
vertex 0 -0.003900653839111328 0.010285179138183593
vertex 0 -0.0022002825736999513 0.010777697563171387
endloop
endfacet
facet normal -1 0 0
outer loop
vertex 0 -0.0055 0.00952627944946289
vertex 0 -0.0022002825736999513 0.010777697563171387
vertex 0 -0.008233617782592774 -0.007294349193572998
endloop
endfacet
facet normal -1 0 0
outer loop
vertex 0 -0.009297090530395508 0.005879124164581299
vertex 0 -0.010964330673217774 0.0008851322531700134
vertex 0 -0.010119773864746094 0.004311632633209228
endloop
endfacet
facet normal -1 0 0
outer loop
vertex 0 -0.006956899166107178 0.008520654678344727
vertex 0 -0.0055 0.00952627944946289
vertex 0 -0.008233617782592774 -0.007294349193572998
endloop
endfacet
facet normal -1 0 0
outer loop
vertex 0 -0.006956899166107178 0.008520654678344727
vertex 0 -0.010964330673217774 0.0008851322531700134
vertex 0 -0.009297090530395508 0.005879124164581299
endloop
endfacet
facet normal -1 0 0
outer loop
vertex 0 -0.006956899166107178 0.008520654678344727
vertex 0 -0.008233617782592774 -0.007294349193572998
vertex 0 -0.010964330673217774 0.0008851322531700134
endloop
endfacet
facet normal -1 0 0
outer loop
vertex 0 -0.008233617782592774 0.007294349193572998
vertex 0 -0.006956899166107178 0.008520654678344727
vertex 0 -0.009297090530395508 0.005879124164581299
endloop
endfacet
endsolid channel_AB_2-inlet
